# xmcd
#
# Track frame offsets:
#	150
#	18751
#	32664
#	49512
#	65212
#	80965
#	100791
#	119394
#	133306
#	150153
#	165855
#	181607
#
# Disc length: 2685 seconds
#
# Revision: 1
# Processed by: cddbd v1.5.2PL0 Copyright (c) Steve Scherf et al.
# Submitted via: audiograbber 1.83.01
#
DISCID=8d0a7b0c
DTITLE=Various Artist - CB20048 Hot Hits Vol. 48
DYEAR=1900
DGENRE=Country
TTITLE0=Lonestar - Everything's Changed
TTITLE1=Dixie Chicks, The - Let'er Rip
TTITLE2=Keith Harling - Coming Back For You
TTITLE3=Kenny Chesney - She Gets That Way
TTITLE4=Becky Hobbs - Country Girls
TTITLE5=Gary Allan - No Man In His Wrong Heart
TTITLE6=Lonestar - Everything's Changed
TTITLE7=Dixie Chicks, The - Let'er Rip
TTITLE8=Keith Harling - Coming Back For You
TTITLE9=Kenny Chesney - She Gets That Way
TTITLE10=Becky Hobbs - Country Girls
TTITLE11=Gary Allan - No Man In His Wrong Heart
EXTD=
EXTT0=
EXTT1=
EXTT2=
EXTT3=
EXTT4=
EXTT5=
EXTT6=
EXTT7=
EXTT8=
EXTT9=
EXTT10=
EXTT11=
PLAYORDER=
